<?xml version="1.0" standalone="no"?>
<!DOCTYPE svg PUBLIC "-//W3C//DTD SVG 20010904//EN"
 "http://www.w3.org/TR/2001/REC-SVG-20010904/DTD/svg10.dtd">
<svg version="1.0" xmlns="http://www.w3.org/2000/svg"
 width="835.000000pt" height="1280.000000pt" viewBox="0 0 835.000000 1280.000000"
 preserveAspectRatio="xMidYMid meet">
<metadata>
Created by potrace 1.15, written by Peter Selinger 2001-2017
</metadata>
<g transform="translate(0.000000,1280.000000) scale(0.100000,-0.100000)"
fill="#000000" stroke="none">
<path d="M4700 12789 c-104 -12 -506 -14 -730 -4 -170 7 -214 3 -350 -35 -62
-18 -124 -26 -365 -50 -136 -14 -309 -52 -384 -85 -31 -13 -87 -29 -126 -35
-240 -36 -383 -82 -599 -194 -60 -31 -139 -67 -176 -80 -87 -32 -244 -115
-350 -187 -47 -31 -113 -69 -148 -83 -153 -61 -378 -209 -540 -354 -82 -74
-306 -341 -377 -450 -84 -130 -183 -328 -230 -458 -25 -71 -68 -181 -95 -245
-28 -64 -50 -122 -50 -130 0 -8 -11 -45 -24 -84 -65 -192 -118 -419 -147 -641
-9 -69 -10 -101 -1 -136 9 -36 9 -82 0 -197 -12 -156 -10 -188 27 -486 16
-127 38 -228 61 -284 8 -18 14 -49 14 -68 0 -51 56 -278 89 -358 16 -38 41
-121 55 -183 15 -64 50 -166 80 -235 41 -93 63 -166 95 -307 24 -102 55 -241
71 -310 16 -69 38 -183 50 -255 29 -180 26 -173 76 -221 24 -24 44 -52 44 -62
0 -10 9 -52 20 -94 l20 -75 -49 -121 c-51 -125 -65 -167 -101 -290 l-21 -73
-34 2 c-20 2 -57 -7 -92 -23 -32 -14 -82 -36 -110 -49 -54 -23 -64 -35 -38
-45 12 -5 8 -15 -18 -52 -45 -66 -67 -142 -67 -237 0 -84 16 -161 45 -217 23
-45 74 -245 64 -255 -4 -4 17 -80 46 -168 56 -171 95 -244 199 -380 73 -94
138 -147 202 -165 27 -7 81 -24 121 -36 39 -13 85 -24 102 -24 35 0 41 -15 10
-25 -11 -4 -19 -10 -17 -13 50 -94 126 -277 153 -367 15 -49 42 -137 60 -195
49 -157 60 -251 61 -540 1 -140 2 -298 4 -350 1 -52 2 -169 1 -260 -2 -183 10
-249 57 -331 29 -51 142 -190 181 -223 74 -63 305 -298 335 -341 34 -48 142
-144 256 -228 30 -23 99 -82 153 -131 86 -81 103 -102 149 -191 53 -104 167
-272 215 -317 25 -23 63 -47 264 -163 61 -35 186 -115 267 -170 38 -26 68 -60
108 -121 30 -47 52 -90 48 -95 -21 -34 100 -109 232 -143 34 -9 91 -27 128
-41 40 -15 87 -25 119 -25 89 0 226 20 285 40 31 11 97 30 146 41 49 12 104
28 122 35 35 15 122 17 164 5 14 -4 41 -2 63 5 41 14 180 17 237 5 44 -10 174
4 220 23 19 7 55 20 79 27 25 7 71 30 103 51 32 21 76 47 99 58 52 27 187 117
219 146 14 13 68 51 120 86 52 35 164 112 248 171 85 59 167 114 183 123 102
52 328 332 428 529 14 28 36 64 47 80 12 17 31 49 43 72 11 23 54 76 95 118
41 42 91 101 112 133 73 108 178 257 195 277 34 39 126 212 181 340 73 171 66
149 90 320 16 123 19 192 17 390 -5 389 -3 467 14 541 8 38 23 102 32 141 22
97 43 218 55 328 6 50 15 112 21 139 5 27 7 51 5 53 -2 2 -26 -7 -54 -21 -54
-27 -57 -33 -68 -136 -6 -58 -51 -280 -90 -445 -46 -192 -46 -193 -49 -535 -2
-297 -6 -353 -27 -495 -22 -143 -31 -174 -80 -290 -62 -146 -144 -300 -193
-360 -18 -22 -72 -98 -121 -170 -49 -71 -128 -171 -176 -222 -48 -51 -98 -114
-112 -140 -13 -26 -36 -63 -50 -82 -14 -19 -26 -40 -26 -46 0 -7 -17 -36 -37
-66 -21 -30 -52 -77 -69 -105 -62 -101 -234 -292 -309 -342 -38 -26 -131 -90
-205 -142 -74 -52 -177 -122 -228 -157 -52 -34 -114 -79 -139 -99 -54 -44
-184 -116 -256 -141 -51 -18 -204 -24 -538 -22 -72 0 -110 -5 -153 -20 -161
-56 -436 -97 -535 -79 -25 4 -67 19 -95 33 -27 14 -62 25 -77 25 -47 0 -194
48 -246 80 -38 24 -60 48 -93 105 -37 62 -54 80 -119 123 -115 75 -398 246
-466 280 -45 23 -87 65 -132 132 -17 25 -40 54 -52 64 -12 11 -49 70 -82 132
-57 104 -70 121 -172 214 -61 56 -131 115 -156 132 -101 69 -223 174 -256 223
-20 28 -75 87 -123 130 -48 43 -101 98 -119 121 -18 23 -48 52 -67 63 -18 12
-51 43 -72 69 -21 26 -59 70 -84 97 -27 29 -57 76 -71 110 -23 56 -24 73 -26
275 -2 313 -20 864 -31 945 -13 105 -133 460 -202 601 -33 66 -60 124 -60 128
0 12 131 -4 164 -20 16 -8 44 -14 63 -14 18 0 63 -14 100 -30 67 -31 116 -45
341 -103 67 -17 122 -34 122 -37 0 -3 -16 -15 -36 -28 l-35 -23 40 -46 c44
-49 47 -62 55 -196 4 -76 9 -92 31 -118 14 -17 25 -43 25 -57 1 -98 132 -422
237 -585 26 -40 59 -107 74 -149 32 -92 75 -163 124 -201 19 -15 35 -34 35
-41 0 -19 44 -56 67 -56 50 0 90 -95 122 -294 6 -35 16 -57 37 -76 16 -15 36
-40 44 -56 21 -39 67 -55 85 -30 12 15 18 16 47 7 18 -6 56 -30 83 -54 94 -82
194 -137 246 -137 12 0 47 -11 78 -24 31 -13 83 -28 116 -34 33 -5 86 -19 117
-31 42 -15 93 -23 180 -28 68 -3 141 -13 163 -20 64 -24 252 -29 311 -9 47 15
56 15 139 -1 130 -25 231 -21 295 12 47 24 54 25 69 11 27 -25 104 -56 139
-56 47 0 108 35 167 95 47 48 56 53 110 60 39 4 88 22 145 50 47 24 105 48
130 54 25 6 70 19 101 29 78 27 137 36 153 23 20 -17 75 7 96 42 21 34 101 66
149 59 43 -6 95 29 115 78 9 22 34 56 55 76 45 40 117 165 127 221 4 21 13 47
21 59 7 12 17 61 22 110 9 95 26 148 66 200 30 39 31 48 6 34 -38 -20 -29 6
30 95 53 79 149 260 149 280 0 4 -7 2 -15 -5 -29 -24 -25 -4 11 51 39 60 122
227 166 334 37 88 68 215 68 277 l0 47 -44 -25 c-42 -23 -45 -28 -55 -87 -15
-86 -30 -137 -41 -137 -5 0 -14 -17 -21 -37 -34 -106 -97 -250 -153 -348 -35
-60 -79 -141 -99 -180 -21 -38 -58 -96 -85 -129 l-47 -58 -5 58 c-4 47 -2 62
11 74 23 20 43 63 67 140 11 36 37 110 57 165 39 108 60 206 46 215 -5 3 5 37
23 75 29 60 47 81 125 150 51 43 109 90 129 104 20 13 50 35 65 48 16 13 40
23 54 23 27 0 122 62 104 68 -22 7 -10 20 27 27 134 24 344 85 410 119 18 9
58 21 90 27 88 16 211 57 268 90 28 16 63 29 76 29 14 0 54 14 89 32 71 35
216 174 275 263 78 117 154 526 154 823 0 56 3 101 8 101 22 -4 31 5 46 41 22
55 20 105 -5 157 -24 51 -86 106 -111 99 -10 -2 -18 0 -18 5 0 6 -39 48 -86
95 -69 69 -88 83 -100 73 -11 -9 -15 -8 -18 2 -5 16 -36 243 -43 309 -5 55
-34 185 -67 303 -14 48 -21 87 -17 87 4 0 21 12 39 28 29 25 33 35 48 132 23
155 48 248 111 418 52 141 59 154 88 167 29 12 34 20 50 86 10 41 35 126 57
189 24 73 44 157 53 228 16 120 40 232 80 377 14 50 25 117 25 150 0 33 7 92
15 130 8 39 18 106 21 150 3 44 12 94 19 110 7 17 19 65 26 107 11 67 11 93
-4 185 -9 60 -19 155 -23 213 -4 58 -13 130 -20 160 -18 72 -23 232 -8 245 20
17 0 211 -30 298 -14 42 -26 84 -26 94 0 50 -140 420 -180 477 -19 27 -42 87
-65 171 -81 290 -105 326 -325 479 -54 38 -113 107 -168 197 -29 49 -166 178
-222 211 -25 14 -92 74 -150 133 -132 134 -201 177 -433 271 -100 41 -274 124
-387 183 -218 116 -265 133 -339 130 -28 -1 -63 6 -91 19 -42 19 -134 40 -326
75 -44 8 -109 27 -145 42 -86 37 -171 67 -314 110 -135 41 -240 50 -385 34z
m259 -110 c97 -25 243 -75 306 -104 75 -34 185 -65 275 -75 122 -14 249 -48
300 -79 51 -32 67 -38 128 -46 23 -2 59 -15 80 -28 103 -66 378 -207 450 -232
102 -35 246 -101 311 -142 33 -21 113 -88 178 -149 65 -61 132 -118 150 -127
57 -30 184 -150 230 -217 84 -124 95 -135 173 -191 149 -107 200 -157 235
-234 18 -38 38 -95 44 -125 23 -109 72 -245 101 -284 17 -22 30 -44 30 -49 0
-12 36 -96 102 -238 27 -58 53 -130 58 -160 4 -30 18 -74 29 -99 26 -59 53
-241 60 -411 5 -105 10 -141 24 -162 25 -38 24 -261 -3 -433 -21 -139 -25
-224 -11 -224 5 0 7 -8 5 -17 -2 -10 -17 -92 -34 -183 -18 -91 -34 -174 -37
-184 -4 -14 -1 -18 11 -13 21 8 21 6 -15 -113 -16 -57 -41 -155 -54 -219 -14
-64 -44 -194 -66 -289 -38 -155 -44 -173 -65 -178 -18 -5 -29 -24 -54 -92 -88
-246 -116 -312 -131 -317 -11 -4 -25 -39 -44 -113 -14 -59 -34 -133 -43 -165
l-17 -58 -58 175 c-32 96 -71 240 -87 320 -16 80 -47 201 -69 268 -39 122 -64
217 -76 291 -5 31 -10 37 -23 32 -9 -4 -21 -7 -27 -8 -6 -1 -13 71 -18 188
l-7 190 28 58 c16 31 27 57 26 57 -2 0 -15 -5 -30 -10 -26 -10 -26 -10 -21 22
2 18 1 43 -4 55 -6 16 7 64 51 184 93 252 174 386 291 476 49 39 57 49 48 64
-9 18 -12 18 -44 5 -55 -23 -115 -69 -187 -143 -145 -149 -229 -338 -258 -579
-6 -54 -18 -130 -26 -168 -18 -87 -18 -85 6 -79 22 6 21 18 25 -287 1 -70 7
-99 34 -167 18 -45 43 -97 56 -115 33 -45 47 -77 50 -118 2 -19 19 -80 39
-135 19 -55 36 -107 36 -116 0 -9 18 -70 39 -135 21 -66 49 -164 61 -219 12
-55 30 -116 40 -135 9 -19 25 -71 34 -115 10 -44 24 -102 32 -129 7 -27 12
-52 9 -56 -2 -4 15 -110 40 -237 45 -236 83 -361 129 -418 21 -26 26 -28 40
-16 15 12 19 11 32 -7 19 -27 65 -52 97 -52 17 0 32 -12 52 -42 25 -38 27 -46
21 -107 -4 -36 -11 -70 -17 -75 -5 -6 -9 -33 -9 -60 -1 -28 -8 -87 -17 -131
-8 -44 -17 -120 -19 -170 -9 -251 -13 -296 -28 -351 -20 -69 -69 -168 -138
-276 -58 -91 -93 -126 -43 -42 19 32 35 61 35 65 0 4 -27 -4 -60 -19 -50 -23
-63 -35 -85 -75 -14 -27 -25 -50 -25 -53 0 -8 41 -4 61 6 10 6 19 7 19 2 0
-13 -21 -28 -50 -37 -14 -4 -53 -21 -87 -38 -58 -29 -64 -30 -75 -14 -19 24
-73 9 -192 -52 -140 -72 -416 -155 -460 -138 -19 8 -53 -6 -121 -49 -61 -38
-275 -159 -330 -187 -78 -39 -135 -89 -187 -166 -65 -95 -118 -165 -180 -236
-26 -30 -54 -68 -63 -84 -27 -54 -47 -161 -43 -246 2 -78 2 -81 -40 -152 -39
-66 -46 -103 -20 -103 6 0 5 -6 -2 -15 -9 -11 -17 -12 -30 -5 -10 6 -51 10
-90 10 -55 0 -77 4 -98 20 -54 40 -177 47 -355 20 -65 -10 -156 -67 -153 -97
0 -10 -15 -26 -40 -40 l-41 -23 5 25 c6 32 -9 32 -132 0 l-95 -24 -78 35 c-43
20 -86 43 -95 51 -27 24 -107 11 -220 -36 -84 -34 -102 -39 -127 -30 -19 7
-36 7 -47 1 -12 -7 -30 -4 -61 10 -29 13 -54 17 -76 13 -24 -5 -37 -2 -47 10
-23 27 -67 45 -113 45 -34 0 -58 -9 -108 -41 -48 -32 -79 -44 -131 -51 -63
-10 -71 -9 -126 17 -45 21 -58 32 -58 48 1 30 -39 48 -99 44 -27 -3 -143 -19
-257 -36 l-208 -31 -99 20 c-54 11 -111 20 -125 20 -14 0 -56 19 -93 41 -55
34 -70 39 -85 30 -26 -16 -26 -16 -20 38 6 65 -27 281 -43 281 -18 0 -54 137
-59 228 -2 48 0 80 5 76 5 -3 18 -3 29 1 19 6 19 8 -5 62 -14 30 -38 71 -55
89 -16 19 -30 41 -30 48 0 23 -62 107 -76 102 -7 -3 -18 2 -25 10 -8 10 -23
14 -38 11 -26 -5 -88 30 -143 81 l-28 25 -35 -19 c-19 -10 -35 -21 -35 -25 0
-6 -157 38 -344 97 -60 19 -111 33 -113 30 -3 -2 -33 15 -67 38 -79 54 -144
73 -200 59 -26 -7 -47 -8 -58 -2 -10 5 -85 27 -167 49 -83 21 -167 48 -188 58
-29 15 -43 17 -61 9 -27 -12 -45 3 -126 103 -111 136 -183 268 -200 365 -30
174 -72 360 -102 456 -21 63 -45 161 -54 219 -17 101 -17 107 1 141 27 55 42
63 84 49 47 -15 51 -29 26 -79 -27 -51 -27 -51 8 -38 16 6 34 21 40 34 6 13
18 23 26 23 9 0 47 16 86 36 67 33 70 36 55 53 -16 17 -15 19 14 31 29 12 31
16 25 49 -3 20 -1 51 5 70 5 19 8 36 6 39 -2 2 -18 -4 -35 -12 l-31 -16 36 77
c49 107 124 283 124 290 0 4 7 15 16 24 9 10 32 77 50 148 35 136 44 163 142
431 65 179 156 455 167 508 4 17 3 32 -2 32 -6 0 -3 37 4 83 15 84 18 188 15
502 -1 135 -6 206 -22 286 -35 183 -103 356 -189 479 -38 55 -155 155 -170
146 -4 -3 -17 8 -29 23 -26 36 -86 58 -107 41 -25 -20 -18 -87 12 -137 30 -46
36 -56 122 -180 30 -43 80 -130 112 -193 52 -106 58 -125 75 -245 34 -231 25
-451 -31 -810 -13 -82 -31 -203 -39 -267 -9 -65 -27 -153 -41 -195 -44 -130
-75 -244 -75 -274 0 -25 -36 -66 -48 -55 -2 2 -3 35 -4 73 0 169 -39 357 -148
713 -16 52 -39 129 -50 170 -12 41 -50 132 -85 201 -35 69 -68 142 -74 163 -9
36 -8 40 20 63 16 14 29 32 29 40 0 38 -43 187 -74 254 -18 41 -57 148 -85
239 -47 148 -53 177 -58 282 -4 71 -2 123 4 130 5 7 11 54 12 103 2 84 -1 100
-43 225 -25 74 -46 153 -46 175 0 22 -7 69 -14 105 -17 78 -8 187 30 380 35
178 128 489 184 615 15 33 44 112 65 175 60 185 208 462 317 597 26 32 85 105
132 163 150 187 359 354 542 431 114 48 163 75 238 133 52 39 189 114 269 145
43 18 60 21 71 12 10 -8 31 -2 87 25 109 53 249 104 289 104 19 0 46 9 60 20
14 11 30 20 36 20 6 0 38 11 72 25 34 14 72 25 84 25 13 0 43 14 68 30 25 16
56 30 70 30 14 1 36 7 50 15 27 15 66 21 42 7 -21 -14 -3 -44 22 -38 11 3 50
10 86 15 100 16 269 76 284 100 4 6 27 11 52 11 55 0 157 15 289 42 120 25
302 28 480 9 118 -13 356 -6 625 19 101 9 150 5 249 -21z m-2467 -225 c-12 -8
-35 -14 -50 -12 l-27 4 25 11 c14 7 36 12 50 12 l24 1 -22 -16z m-305 -8536
c93 -77 111 -107 140 -224 12 -47 13 -71 6 -83 -7 -11 -6 -31 3 -66 8 -28 21
-102 29 -165 20 -148 21 -153 45 -140 17 9 20 4 30 -48 13 -61 32 -99 62 -120
24 -18 23 -27 -7 -40 -14 -7 -25 -20 -25 -31 0 -19 -49 -233 -55 -239 -2 -2
-21 33 -44 78 -26 52 -41 96 -41 119 0 23 -15 69 -40 119 -21 45 -45 100 -51
122 -8 25 -17 39 -25 36 -16 -6 -55 84 -88 199 -14 50 -34 117 -46 149 -11 33
-23 85 -26 115 -5 54 -41 253 -49 279 -4 9 -10 10 -23 3 -15 -8 -24 -5 -41 13
-11 12 -21 24 -21 27 0 3 41 -3 91 -13 89 -18 93 -21 176 -90z m3906 -425 c-6
-41 -43 -147 -49 -141 -3 4 34 157 42 170 10 16 13 7 7 -29z m-153 -586 c0
-48 5 -88 11 -94 7 -7 8 -19 3 -30 -4 -10 -8 -22 -9 -28 0 -5 -4 -16 -8 -22
-18 -29 -27 -8 -27 65 -1 42 -7 95 -15 117 -14 38 -13 41 8 57 12 10 25 18 30
18 4 0 7 -37 7 -83z m-3380 52 c0 -5 -4 -9 -10 -9 -20 0 -9 -19 13 -22 21 -3
22 -8 23 -90 0 -49 3 -91 6 -94 11 -11 -13 -61 -42 -89 -63 -60 -73 11 -33
237 11 66 18 85 29 81 8 -3 14 -9 14 -14z m2828 -30 c20 -8 28 -26 23 -53 -1
-5 10 -21 24 -36 22 -23 26 -38 32 -122 8 -124 0 -168 -31 -168 -22 0 -23 5
-34 115 -6 63 -16 125 -23 137 -27 54 -75 117 -93 122 -10 2 -15 9 -12 14 6
11 76 5 114 -9z m-1957 -46 l46 -32 -13 -78 c-8 -45 -11 -108 -7 -150 l6 -71
-48 -51 c-26 -28 -55 -51 -63 -51 -35 0 -101 42 -122 78 l-22 36 21 131 c11
71 22 148 23 170 3 40 3 40 58 51 61 12 57 13 121 -33z m2343 -7 c9 -20 16
-58 15 -93 l0 -58 -18 40 c-19 42 -33 145 -21 145 4 0 15 -15 24 -34z m-2573
15 c-7 -5 -19 -37 -26 -72 -17 -83 -65 -276 -77 -312 -8 -20 -14 -25 -23 -17
-9 8 -10 21 -4 50 7 32 5 52 -12 98 -38 101 -35 224 6 230 11 2 29 7 40 12 40
18 122 27 96 11z m1982 -38 c-9 -3 -4 -17 16 -46 38 -56 49 -95 57 -203 9
-133 9 -134 -84 -134 l-77 0 -28 83 c-15 45 -30 96 -33 112 -4 17 -17 49 -30
72 l-24 42 22 12 22 12 -32 28 -32 29 30 15 c30 16 30 15 18 -4 -10 -16 -10
-23 0 -33 9 -9 26 -4 79 24 l68 36 20 -20 c14 -14 16 -22 8 -25z m425 -4 c7
-28 12 -63 12 -79 0 -15 7 -43 15 -63 13 -32 13 -36 -2 -41 -9 -4 -17 -5 -19
-3 -2 2 -8 48 -13 103 -5 54 -12 107 -16 117 -4 9 -3 17 2 17 5 0 15 -23 21
-51z m-2831 28 c-46 -30 -45 -25 -30 -151 12 -104 12 -122 -1 -134 -12 -12
-21 -11 -64 14 l-50 28 29 30 c44 47 53 84 35 151 -12 48 -12 57 0 62 8 3 20
3 27 0 8 -3 20 -1 28 4 8 5 21 8 29 8 12 0 11 -3 -3 -12z m1747 -9 c7 -13 33
-81 56 -153 23 -71 54 -152 68 -180 16 -33 27 -73 30 -116 l4 -66 -52 -10
c-48 -10 -51 -9 -47 8 6 23 10 24 -57 -7 -51 -23 -63 -25 -135 -19 -43 4 -84
11 -91 15 -18 11 -3 390 15 390 7 0 29 22 49 50 36 50 108 110 132 110 8 0 20
-10 28 -22z m-1570 -32 c-30 -91 -30 -144 -3 -224 23 -70 22 -82 -13 -100 -20
-11 -31 -10 -82 14 l-58 26 37 34 37 33 -7 78 c-4 43 -11 86 -16 95 -5 9 -9
21 -9 26 0 18 64 48 93 44 23 -4 26 -8 21 -26z m1921 -12 c-11 -8 -26 -19 -34
-23 -11 -7 -6 -23 26 -82 22 -41 44 -90 47 -109 4 -19 19 -69 34 -112 34 -100
26 -123 -47 -133 -82 -11 -86 -7 -86 82 -1 82 2 74 -106 311 -10 23 -19 44
-19 47 0 2 30 4 68 3 46 -1 76 4 97 15 37 21 46 21 20 1z m-1156 -76 c6 -46
15 -136 21 -200 11 -113 11 -117 -12 -151 -18 -29 -30 -36 -67 -41 -40 -5 -48
-3 -74 21 -16 16 -38 47 -49 71 l-19 42 27 36 c30 39 30 42 19 196 l-8 97 36
-6 c19 -3 43 0 53 6 11 6 29 11 40 11 20 0 23 -8 33 -82z m363 65 c25 -7 73
-90 81 -138 4 -22 4 -108 0 -192 l-6 -153 -109 0 c-114 0 -135 6 -180 47 l-26
25 20 34 c18 31 19 40 9 121 -6 48 -11 109 -11 135 l0 47 88 44 c48 25 94 43
102 40 8 -3 23 -8 32 -10z m199 -6 c-10 -9 -11 -8 -5 6 3 10 9 15 12 12 3 -3
0 -11 -7 -18z m-416 -7 c-3 -5 -11 -10 -16 -10 -6 0 -7 5 -4 10 3 6 11 10 16
10 6 0 7 -4 4 -10z m1911 -142 c-9 -13 -19 -31 -22 -40 -3 -9 -12 -14 -19 -12
-18 7 -105 -35 -105 -51 0 -7 -6 -17 -13 -23 -9 -8 -16 -6 -24 8 -15 22 -7 29
57 53 25 10 65 33 90 52 54 40 57 42 36 13z m157 -48 c20 -39 17 -101 -6 -147
l-14 -26 -24 44 c-13 24 -42 57 -64 74 l-41 31 51 32 c27 17 57 31 65 29 8 -1
23 -18 33 -37z m-3190 -107 c-4 -9 -14 -24 -24 -34 -9 -9 -28 -45 -40 -80
l-23 -62 -13 64 c-7 35 -17 77 -23 92 -8 26 -8 28 8 22 37 -16 50 -16 83 -2
19 9 35 16 36 16 1 1 -1 -7 -4 -16z m2933 -24 c78 -53 97 -108 76 -222 -6 -31
-13 -41 -39 -52 l-33 -14 0 37 c-1 32 -36 197 -55 260 -10 29 -2 28 51 -9z
m-176 -41 c14 -41 41 -179 47 -238 5 -55 -2 -65 -47 -74 l-35 -6 3 60 c5 84
-13 156 -51 207 -18 23 -35 43 -39 43 -6 0 -99 -53 -117 -66 -2 -2 10 -19 27
-38 38 -43 52 -91 52 -177 l0 -66 -47 -18 c-27 -9 -71 -30 -99 -45 l-51 -29
12 34 c14 43 -5 156 -43 257 l-25 67 -38 -20 c-22 -11 -39 -23 -39 -27 0 -10
29 -167 41 -221 7 -30 6 -53 -2 -76 -11 -29 -18 -34 -57 -40 -24 -4 -45 -5
-47 -3 -13 16 -55 172 -55 206 0 25 -6 50 -15 58 -23 23 -18 43 13 50 36 9
139 61 147 75 5 7 24 8 55 4 69 -9 151 10 211 51 28 19 63 34 78 34 14 1 40 7
56 15 45 20 52 18 65 -17z m-2688 -24 c4 -3 0 -21 -8 -39 -8 -21 -14 -69 -14
-120 0 -87 -14 -114 -26 -50 -6 32 11 189 22 207 6 9 18 10 26 2z m149 -18
c27 -23 27 -25 10 -31 -21 -6 -41 -53 -41 -96 0 -15 -4 -31 -10 -34 -11 -7
-14 142 -4 169 8 21 11 20 45 -8z m195 -17 c41 -25 45 -59 11 -82 -44 -28 -71
-198 -44 -274 14 -41 14 -43 -4 -43 -16 0 -18 5 -13 25 4 18 1 32 -11 45 -41
46 -70 239 -45 305 9 22 37 42 64 44 5 1 24 -8 42 -20z m251 -26 c11 -22 10
-30 -1 -42 -60 -69 -70 -161 -32 -292 14 -46 24 -84 23 -85 -1 -1 -22 4 -46
10 -38 9 -49 18 -73 60 -51 87 -61 188 -19 201 18 5 19 13 14 75 l-6 70 29 0
c16 1 40 7 54 15 35 20 43 18 57 -12z m342 -92 c31 -29 100 -51 158 -51 26 0
26 -1 7 -14 -16 -12 -19 -29 -22 -118 -3 -143 -9 -162 -53 -166 -23 -2 -44 3
-59 16 -21 17 -23 26 -24 145 -2 123 -2 126 -29 151 -25 23 -28 24 -46 8 -11
-9 -31 -35 -45 -56 -24 -36 -26 -47 -26 -155 0 -83 4 -124 15 -145 13 -25 13
-28 -1 -22 -9 3 -20 6 -25 6 -5 0 -9 8 -9 18 0 10 -18 36 -40 57 -34 34 -46
57 -80 162 -45 136 -45 142 -27 167 13 18 15 18 41 1 40 -27 184 -12 232 24 1
1 16 -12 33 -28z m989 -3 c11 -14 32 -130 39 -221 5 -62 -1 -76 -57 -141 -30
-34 -32 -34 -65 -20 -32 13 -37 12 -90 -16 -85 -44 -91 -37 -25 28 58 56 60
60 60 109 0 29 -6 80 -14 115 -29 130 -29 128 2 129 15 0 45 6 67 14 53 17 70
18 83 3z m-538 -53 c0 -25 -6 -37 -21 -45 -20 -11 -20 -17 -15 -113 7 -120 -1
-172 -24 -154 -15 12 -71 100 -106 167 -10 19 -21 61 -24 92 l-6 57 71 11 c38
6 75 13 80 15 34 12 45 4 45 -30z m263 -92 c26 -166 25 -176 -31 -235 -41 -43
-51 -49 -74 -43 -23 6 -28 14 -33 50 -4 23 -4 71 -1 106 3 35 8 99 12 141 l6
77 47 4 c25 2 49 4 52 5 3 1 13 -46 22 -105z m-499 -259 c11 -28 6 -34 -28
-34 -62 0 -72 11 -29 31 48 22 50 22 57 3z m806 -18 c0 -3 -4 -8 -10 -11 -5
-3 -10 -1 -10 4 0 6 5 11 10 11 6 0 10 -2 10 -4z"/>
<path d="M5816 12394 c-10 -7 -23 -15 -28 -16 -4 -2 1 -21 12 -43 11 -21 20
-46 20 -55 0 -33 43 -82 107 -123 110 -70 175 -103 236 -123 36 -11 63 -26 69
-39 11 -20 79 -100 149 -176 23 -24 32 -42 26 -48 -12 -12 97 -121 210 -212
114 -90 287 -192 313 -184 31 10 25 20 -32 55 -157 97 -437 341 -411 358 9 6
-1 18 -33 40 -29 21 -52 48 -65 76 -10 25 -34 63 -52 85 -17 22 -39 50 -47 61
-9 13 -49 32 -103 50 -87 28 -231 104 -275 143 -12 11 -31 51 -42 88 -12 38
-24 70 -28 73 -4 2 -16 -2 -26 -10z"/>
<path d="M6977 11527 c-31 -17 -57 -33 -57 -36 0 -3 25 -17 56 -30 42 -18 62
-35 81 -65 38 -61 64 -86 89 -86 13 0 30 -10 38 -22 15 -21 14 -24 -12 -45
l-27 -22 47 -1 c44 0 50 -4 103 -59 31 -33 66 -78 77 -101 11 -22 37 -55 58
-73 25 -22 43 -49 55 -87 12 -36 30 -65 52 -85 57 -49 82 -76 143 -151 44 -55
61 -86 75 -138 18 -65 26 -74 53 -57 15 9 5 83 -22 159 -25 71 -105 189 -142
212 -48 30 -70 61 -94 136 -16 48 -36 80 -75 122 -40 43 -54 67 -60 100 -9 54
-27 72 -74 72 -33 0 -45 7 -82 48 -23 26 -84 90 -134 143 l-91 96 -57 -30z"/>
<path d="M7771 10141 c-28 -13 -44 -37 -101 -151 -37 -75 -82 -159 -99 -188
-17 -29 -26 -52 -21 -52 36 0 62 32 137 168 93 169 126 233 121 237 -2 1 -18
-5 -37 -14z"/>
<path d="M7794 9969 c-32 -14 -47 -30 -64 -66 -27 -57 -50 -161 -50 -226 0
-45 1 -47 21 -37 23 13 21 6 49 132 16 72 31 112 60 157 22 34 36 61 32 60 -4
0 -26 -9 -48 -20z"/>
<path d="M7229 9225 c-41 -21 -50 -32 -71 -87 -23 -57 -57 -95 -98 -110 -14
-5 -59 -172 -81 -298 -10 -63 -24 -128 -29 -145 -6 -16 -7 -31 -2 -33 4 -1 6
-90 4 -198 -3 -125 -1 -199 6 -203 12 -8 72 -218 72 -254 0 -27 7 -32 33 -21
11 4 13 23 10 97 -3 56 1 133 11 197 8 58 18 163 22 234 l7 128 -32 -17 c-18
-9 -35 -15 -37 -12 -2 2 7 64 20 139 23 125 31 148 104 306 84 179 116 262
110 286 -2 11 -12 9 -49 -9z"/>
<path d="M1151 9057 c-21 -10 -23 -15 -16 -61 11 -89 15 -97 36 -85 16 8 19
21 19 84 0 41 -3 75 -7 74 -5 0 -19 -5 -32 -12z"/>
<path d="M1190 8833 c-14 -9 -27 -18 -29 -19 -2 -2 24 -53 58 -114 83 -150 93
-177 92 -235 -1 -27 8 -85 19 -127 20 -77 44 -336 34 -363 -7 -18 6 -19 29 -2
15 10 17 33 18 161 0 82 -4 152 -9 155 -5 3 -14 49 -19 101 -10 93 -19 124
-115 378 -17 45 -36 82 -42 82 -6 0 -23 -8 -36 -17z"/>
<path d="M5860 8493 c-19 -13 -42 -28 -50 -34 -12 -7 -10 -13 15 -31 17 -13
77 -63 135 -112 58 -50 107 -92 110 -94 3 -2 -6 -12 -18 -23 l-24 -19 24 -9
c130 -50 190 -77 228 -101 29 -19 53 -27 66 -24 25 7 99 -15 355 -101 154 -52
188 -61 202 -50 23 17 22 21 -15 35 -18 7 -134 61 -258 120 -233 112 -296 136
-336 126 -34 -9 -64 10 -106 64 -32 40 -230 231 -278 267 -12 8 -23 5 -50 -14z"/>
<path d="M5087 8074 c-27 -14 -54 -23 -60 -21 -24 9 -301 -156 -350 -208 -30
-33 -25 -59 9 -52 17 3 25 -1 30 -15 7 -23 32 -17 89 22 22 15 80 49 128 75
61 33 87 52 83 61 -4 10 10 22 39 36 35 17 42 25 35 38 -7 13 0 21 37 39 37
18 43 24 33 36 -16 19 -16 19 -73 -11z"/>
<path d="M2505 8078 c-22 -5 -58 -7 -80 -4 -22 3 -68 -1 -103 -8 -56 -12 -61
-12 -50 2 12 13 5 14 -62 8 -140 -14 -338 -75 -375 -116 -17 -18 -10 -54 9
-46 197 87 286 120 189 69 -57 -29 -58 -30 -43 -53 8 -12 14 -11 47 7 21 12
74 33 118 48 69 22 80 24 87 10 8 -13 12 -13 38 0 43 22 168 19 369 -11 146
-21 179 -23 198 -13 21 11 46 8 171 -20 122 -27 175 -45 311 -107 151 -68 201
-82 201 -54 0 5 -24 22 -52 38 -29 16 -93 55 -143 86 -77 49 -95 56 -123 51
-18 -3 -49 -1 -69 6 l-35 11 31 15 c17 9 31 18 31 22 0 9 -216 31 -294 31 -39
0 -69 -6 -90 -18 -28 -17 -37 -17 -86 -7 l-55 13 61 1 c44 1 68 6 84 19 23 19
22 19 -76 25 -122 8 -158 8 -209 -5z"/>
<path d="M1645 8010 c-85 -49 -119 -83 -111 -108 10 -31 18 -28 74 21 26 24
65 53 85 65 23 15 34 28 30 38 -7 20 -21 17 -78 -16z"/>
<path d="M5641 7700 c-82 -45 -88 -52 -104 -121 -6 -24 -3 -29 34 -43 39 -16
43 -16 83 3 45 22 136 107 136 127 0 7 2 19 5 26 7 17 -34 38 -73 38 -15 0
-51 -14 -81 -30z"/>
<path d="M2684 7664 c-117 -70 -151 -126 -103 -170 16 -15 35 -18 98 -17 90 1
133 18 157 65 20 38 7 74 -31 88 -15 6 -23 14 -20 20 8 13 -13 50 -28 50 -7 0
-40 -16 -73 -36z"/>
<path d="M6255 7520 c-33 -4 -121 -13 -195 -19 -74 -6 -145 -14 -157 -16 -12
-3 -63 -9 -115 -15 -91 -9 -251 -56 -345 -100 -24 -11 -48 -20 -53 -20 -35 0
-229 -127 -303 -199 -60 -58 -124 -165 -137 -228 -43 -215 -48 -294 -24 -412
7 -33 7 -33 -17 -18 -13 8 -49 23 -80 31 -31 9 -77 30 -103 46 -38 25 -51 28
-67 19 -12 -6 -22 -9 -23 -7 -1 2 -14 24 -29 49 -20 35 -40 53 -87 78 l-61 33
-42 -28 c-37 -25 -40 -28 -23 -38 90 -54 107 -70 150 -135 51 -80 93 -111 149
-111 30 0 37 4 37 20 0 24 -6 24 66 -1 40 -14 73 -19 100 -15 l41 5 12 -52 c6
-29 16 -105 22 -170 11 -127 26 -181 63 -237 13 -20 35 -63 48 -97 28 -70 58
-110 107 -144 18 -13 72 -62 120 -109 78 -79 96 -91 206 -142 195 -91 312
-118 520 -118 125 -1 129 -1 100 -17 l-29 -16 42 -37 c23 -21 86 -67 139 -102
54 -36 113 -82 131 -102 18 -19 45 -38 60 -42 52 -11 55 -13 47 -37 -23 -74
-16 -91 44 -107 20 -5 60 -24 90 -42 46 -28 61 -46 102 -118 40 -71 48 -94 48
-138 1 -48 5 -57 44 -100 24 -26 57 -71 73 -101 37 -69 95 -109 131 -90 l23
13 -29 30 c-16 17 -43 59 -60 93 -17 34 -44 77 -60 96 -22 24 -32 48 -37 88
-4 39 -21 80 -62 152 -50 87 -63 102 -112 131 -30 18 -70 39 -87 46 -18 7 -33
13 -33 15 0 1 7 17 16 35 26 50 10 81 -50 100 -28 9 -59 28 -75 47 -14 17 -82
68 -151 114 -122 82 -124 84 -90 87 19 1 76 9 125 18 50 9 135 19 190 24 70 5
131 18 205 42 123 41 168 63 270 131 174 117 198 144 270 312 31 74 45 121 51
180 9 84 17 143 45 315 20 128 23 348 6 408 -7 23 -17 78 -22 121 -5 43 -18
98 -29 122 -11 24 -22 56 -26 72 -3 15 -26 48 -51 73 -25 25 -52 56 -60 69
-26 40 -201 118 -314 140 -79 15 -133 30 -315 84 -137 41 -241 53 -340 41z"/>
<path d="M2515 7336 c-38 -7 -121 -28 -184 -46 -96 -27 -127 -31 -200 -29 -47
2 -108 -2 -136 -8 -27 -7 -88 -19 -135 -28 -47 -9 -97 -22 -112 -30 -22 -11
-28 -11 -32 1 -23 60 -222 -87 -292 -215 -12 -22 -31 -53 -43 -70 -12 -17 -23
-41 -23 -53 0 -13 -13 -55 -29 -93 -19 -48 -38 -135 -59 -265 -32 -201 -34
-261 -11 -385 6 -33 16 -88 21 -123 15 -88 97 -348 128 -405 19 -33 32 -45 42
-41 29 11 34 9 48 -21 22 -46 72 -95 117 -116 22 -9 77 -24 123 -33 45 -9 92
-22 105 -30 12 -8 40 -19 62 -25 22 -5 58 -15 80 -20 22 -6 63 -8 90 -6 l50 5
-50 -18 c-120 -45 -203 -103 -246 -170 -25 -39 -29 -53 -23 -88 5 -38 3 -43
-24 -63 -17 -11 -39 -21 -49 -21 -22 0 -105 -50 -146 -89 -46 -42 -57 -73 -57
-159 0 -75 -2 -81 -37 -130 -21 -28 -73 -90 -117 -139 -74 -83 -77 -88 -55
-94 13 -3 36 0 52 8 40 20 166 155 215 230 41 65 42 68 42 151 0 83 1 85 35
119 19 19 39 32 45 28 23 -14 68 8 128 63 61 58 62 59 62 113 0 46 5 60 31 92
17 21 43 44 58 51 31 17 294 96 299 91 2 -2 -1 -12 -7 -24 -11 -20 -11 -20 26
-4 81 33 93 42 93 71 0 16 -5 33 -11 39 -7 7 -2 13 18 21 15 5 60 22 98 37 39
15 90 34 115 42 55 19 247 113 315 156 89 55 275 189 288 206 7 9 31 32 55 51
86 68 173 213 198 329 9 42 27 114 39 161 13 47 26 97 29 113 4 15 11 27 18
27 6 0 50 23 97 52 47 29 120 67 161 85 50 22 75 38 75 49 0 9 10 20 23 25 25
9 28 22 9 37 -18 15 -130 -40 -263 -130 l-111 -75 1 121 1 121 -42 85 c-22 47
-46 101 -52 121 -6 20 -21 46 -33 58 -23 25 -113 71 -139 71 -9 0 -34 24 -55
53 -72 96 -220 154 -373 144 -60 -3 -93 -1 -118 9 -50 21 -147 25 -228 10z
m-425 -241 c0 -2 -9 -9 -20 -15 -12 -6 -20 -7 -20 -1 0 5 8 12 18 14 9 3 18 5
20 6 1 0 2 -1 2 -4z m1140 -1145 c-12 -16 -24 -30 -26 -30 -3 0 3 14 13 30 9
17 21 30 26 30 5 0 -1 -13 -13 -30z"/>
<path d="M4203 6827 c-42 -20 -43 -22 -43 -70 0 -27 -7 -76 -16 -110 -12 -48
-15 -105 -12 -291 3 -204 6 -236 23 -273 11 -24 22 -43 25 -43 34 1 49 119 50
395 0 126 5 196 15 235 15 57 21 180 8 179 -5 0 -27 -10 -50 -22z"/>
<path d="M4192 6018 c-22 -11 -23 -16 -17 -82 15 -185 15 -185 44 -167 18 12
26 106 16 196 -7 69 -8 70 -43 53z"/>
<path d="M4363 5567 c-66 -33 -83 -46 -83 -63 0 -12 -5 -24 -12 -26 -9 -3 -7
-57 6 -224 11 -127 22 -399 26 -649 8 -417 11 -459 45 -580 48 -171 69 -200
135 -192 19 2 49 -2 67 -10 61 -25 144 -9 194 38 26 24 29 33 24 62 -6 32 -3
37 55 87 33 29 67 65 75 81 20 38 19 98 -4 188 -11 42 -24 102 -31 133 -6 31
-22 73 -36 93 -19 29 -24 49 -24 103 0 51 -9 91 -36 167 -19 55 -44 127 -56
160 -11 33 -35 103 -54 155 -20 52 -46 140 -59 195 -14 56 -31 120 -40 144 -8
24 -15 74 -15 112 0 38 -1 69 -3 69 -1 0 -21 -9 -42 -20 -39 -20 -40 -20 -45
-1 -5 17 -11 15 -87 -22z m324 -1379 c-3 -8 -6 -5 -6 6 -1 11 2 17 5 13 3 -3
4 -12 1 -19z m-168 -97 c1 -48 -5 -36 -13 24 -4 34 -3 43 3 30 5 -11 10 -35
10 -54z"/>
<path d="M4112 5526 c-35 -12 -68 -29 -73 -39 -6 -9 -14 -17 -20 -17 -5 0 -20
-10 -33 -22 -18 -18 -28 -46 -41 -117 -13 -77 -31 -125 -102 -275 -217 -462
-249 -561 -265 -814 -9 -154 -9 -181 7 -237 29 -109 97 -167 195 -165 25 0 74
-3 108 -9 161 -24 248 73 266 296 6 68 5 71 -14 66 -29 -8 -26 30 9 119 16 40
35 104 42 143 16 91 6 249 -22 345 -18 65 -20 92 -16 200 3 69 11 170 17 225
6 55 10 150 8 212 l-3 111 -63 -22z"/>
<path d="M2676 4919 c-134 -71 -165 -93 -191 -143 -14 -26 -25 -56 -25 -66 0
-28 44 -36 86 -16 19 9 55 16 80 16 60 0 178 60 205 104 38 62 15 130 -46 142
-23 4 -49 -5 -109 -37z"/>
<path d="M5818 4896 c-83 -30 -188 -105 -188 -136 0 -46 41 -80 97 -80 54 0
211 88 234 131 14 27 -8 60 -54 83 -41 19 -41 19 -89 2z"/>
<path d="M4262 3667 l-62 -41 24 -25 c43 -47 45 -57 41 -291 -2 -179 0 -231
11 -252 17 -33 26 -34 50 -11 30 30 54 100 64 180 5 43 16 99 24 124 8 26 17
87 21 136 6 73 4 95 -9 121 -22 42 -75 102 -90 101 -6 0 -39 -19 -74 -42z"/>
<path d="M5294 3600 l-52 -30 24 -82 c28 -94 85 -191 109 -182 22 9 19 128 -6
235 -11 49 -21 89 -22 89 -1 0 -25 -14 -53 -30z"/>
<path d="M4958 3556 c-35 -19 -38 -25 -38 -66 0 -149 53 -450 80 -450 28 0 60
106 60 199 0 138 -35 343 -57 340 -5 -1 -25 -11 -45 -23z"/>
<path d="M3631 3491 c-62 -30 -76 -57 -87 -166 -17 -162 26 -173 70 -18 15 54
39 122 52 152 13 30 23 55 22 56 -2 2 -27 -9 -57 -24z"/>
<path d="M5655 3489 c-16 -10 -34 -20 -39 -22 -16 -5 24 -177 51 -225 41 -72
70 -46 72 64 1 47 -31 180 -47 195 -4 4 -20 -2 -37 -12z"/>
<path d="M4602 3437 c-41 -20 -43 -23 -37 -55 7 -37 35 -102 44 -102 27 1 50
67 51 143 0 43 -1 43 -58 14z"/>
<path d="M3033 3390 l-50 -29 -7 -89 c-4 -49 -5 -101 -2 -115 3 -15 8 -38 11
-52 10 -46 40 -14 63 67 21 73 48 235 40 243 -2 2 -27 -9 -55 -25z"/>
<path d="M3286 3387 c-33 -19 -42 -32 -61 -87 -12 -36 -26 -74 -32 -85 -16
-29 -42 -135 -34 -135 47 0 180 243 169 310 -3 19 -4 19 -42 -3z"/>
<path d="M5814 1495 c-23 -13 -50 -37 -60 -52 -35 -53 -64 -114 -64 -134 0
-52 127 9 220 105 l45 47 -34 29 c-41 36 -54 37 -107 5z"/>
<path d="M2753 1379 c-84 -71 -103 -90 -103 -104 0 -23 69 -75 100 -75 16 0
32 -5 35 -10 9 -15 167 73 182 101 10 20 8 24 -28 42 -21 10 -39 23 -39 28 0
5 -5 9 -11 9 -6 0 -20 11 -31 25 -27 35 -49 31 -105 -16z"/>
<path d="M4573 1349 c-36 -23 -34 -37 6 -73 17 -15 23 -16 36 -6 15 13 20 56
9 84 -8 20 -12 20 -51 -5z"/>
<path d="M4009 1214 c-57 -63 -219 -201 -284 -242 -99 -64 -106 -71 -94 -93 9
-18 12 -18 42 -3 46 24 148 92 179 122 22 20 30 23 42 13 8 -7 24 -10 35 -6
21 6 101 130 101 155 0 7 8 22 17 32 15 16 15 20 2 34 -13 13 -18 11 -40 -12z"/>
<path d="M4538 1214 c-15 -8 -26 -20 -23 -27 14 -48 15 -67 0 -67 -8 0 -15 8
-15 18 -1 40 -15 44 -64 21 -53 -27 -53 -26 -1 -135 36 -74 82 -129 145 -170
46 -31 87 -26 69 7 -10 19 -9 20 18 5 16 -8 57 -22 92 -31 56 -14 65 -14 86
-1 20 13 30 13 81 1 33 -8 79 -21 102 -29 38 -14 47 -14 64 -2 19 14 17 16
-50 50 -84 42 -184 72 -279 81 -65 7 -70 9 -115 57 -48 50 -67 94 -69 158 -1
19 -4 45 -7 57 -7 20 -9 20 -34 7z"/>
</g>
</svg>
